<mxfile host="app.diagrams.net" modified="2021-01-02T01:34:28.887Z" agent="5.0 (Macintosh; Intel Mac OS X 10_15_6) AppleWebKit/537.36 (KHTML, like Gecko) Chrome/87.0.4280.88 Safari/537.36" etag="vN_nl71kvzJo5_GtWHts" version="14.1.4" type="github">
  <diagram id="gsOSVRQu1B2_pKNPIINB" name="Page-1">
    <mxGraphModel dx="786" dy="427" grid="1" gridSize="10" guides="1" tooltips="1" connect="1" arrows="1" fold="1" page="1" pageScale="1" pageWidth="827" pageHeight="1169" background="#114B5F" math="0" shadow="0">
      <root>
        <mxCell id="0" />
        <mxCell id="1" parent="0" />
        <mxCell id="k19BqlN-eKoRZhrv01-V-1" value="" style="shape=table;html=1;whiteSpace=wrap;startSize=0;container=1;collapsible=0;childLayout=tableLayout;fillColor=#F45B69;strokeColor=#028090;fontColor=#E4FDE1;comic=1;" vertex="1" parent="1">
          <mxGeometry x="370" y="120" width="60" height="200" as="geometry" />
        </mxCell>
        <mxCell id="k19BqlN-eKoRZhrv01-V-2" value="" style="shape=partialRectangle;html=1;whiteSpace=wrap;collapsible=0;dropTarget=0;pointerEvents=0;fillColor=none;top=0;left=0;bottom=0;right=0;points=[[0,0.5],[1,0.5]];portConstraint=eastwest;strokeColor=#028090;fontColor=#E4FDE1;" vertex="1" parent="k19BqlN-eKoRZhrv01-V-1">
          <mxGeometry width="60" height="40" as="geometry" />
        </mxCell>
        <mxCell id="k19BqlN-eKoRZhrv01-V-3" value="" style="shape=partialRectangle;html=1;whiteSpace=wrap;connectable=0;overflow=hidden;fillColor=none;top=0;left=0;bottom=0;right=0;strokeColor=#028090;fontColor=#E4FDE1;" vertex="1" parent="k19BqlN-eKoRZhrv01-V-2">
          <mxGeometry width="60" height="40" as="geometry" />
        </mxCell>
        <mxCell id="k19BqlN-eKoRZhrv01-V-4" value="" style="shape=partialRectangle;html=1;whiteSpace=wrap;collapsible=0;dropTarget=0;pointerEvents=0;fillColor=none;top=0;left=0;bottom=0;right=0;points=[[0,0.5],[1,0.5]];portConstraint=eastwest;strokeColor=#028090;fontColor=#E4FDE1;" vertex="1" parent="k19BqlN-eKoRZhrv01-V-1">
          <mxGeometry y="40" width="60" height="40" as="geometry" />
        </mxCell>
        <mxCell id="k19BqlN-eKoRZhrv01-V-5" value="" style="shape=partialRectangle;html=1;whiteSpace=wrap;connectable=0;overflow=hidden;fillColor=none;top=0;left=0;bottom=0;right=0;strokeColor=#028090;fontColor=#E4FDE1;" vertex="1" parent="k19BqlN-eKoRZhrv01-V-4">
          <mxGeometry width="60" height="40" as="geometry" />
        </mxCell>
        <mxCell id="k19BqlN-eKoRZhrv01-V-6" value="" style="shape=partialRectangle;html=1;whiteSpace=wrap;collapsible=0;dropTarget=0;pointerEvents=0;fillColor=none;top=0;left=0;bottom=0;right=0;points=[[0,0.5],[1,0.5]];portConstraint=eastwest;strokeColor=#028090;fontColor=#E4FDE1;" vertex="1" parent="k19BqlN-eKoRZhrv01-V-1">
          <mxGeometry y="80" width="60" height="40" as="geometry" />
        </mxCell>
        <mxCell id="k19BqlN-eKoRZhrv01-V-7" value="" style="shape=partialRectangle;html=1;whiteSpace=wrap;connectable=0;overflow=hidden;fillColor=none;top=0;left=0;bottom=0;right=0;strokeColor=#028090;fontColor=#E4FDE1;" vertex="1" parent="k19BqlN-eKoRZhrv01-V-6">
          <mxGeometry width="60" height="40" as="geometry" />
        </mxCell>
        <mxCell id="k19BqlN-eKoRZhrv01-V-8" value="" style="shape=partialRectangle;html=1;whiteSpace=wrap;collapsible=0;dropTarget=0;pointerEvents=0;fillColor=none;top=0;left=0;bottom=0;right=0;points=[[0,0.5],[1,0.5]];portConstraint=eastwest;strokeColor=#028090;fontColor=#E4FDE1;" vertex="1" parent="k19BqlN-eKoRZhrv01-V-1">
          <mxGeometry y="120" width="60" height="40" as="geometry" />
        </mxCell>
        <mxCell id="k19BqlN-eKoRZhrv01-V-9" value="" style="shape=partialRectangle;html=1;whiteSpace=wrap;connectable=0;overflow=hidden;fillColor=none;top=0;left=0;bottom=0;right=0;strokeColor=#028090;fontColor=#E4FDE1;" vertex="1" parent="k19BqlN-eKoRZhrv01-V-8">
          <mxGeometry width="60" height="40" as="geometry" />
        </mxCell>
        <mxCell id="k19BqlN-eKoRZhrv01-V-10" value="" style="shape=partialRectangle;html=1;whiteSpace=wrap;collapsible=0;dropTarget=0;pointerEvents=0;fillColor=none;top=0;left=0;bottom=0;right=0;points=[[0,0.5],[1,0.5]];portConstraint=eastwest;strokeColor=#028090;fontColor=#E4FDE1;" vertex="1" parent="k19BqlN-eKoRZhrv01-V-1">
          <mxGeometry y="160" width="60" height="40" as="geometry" />
        </mxCell>
        <mxCell id="k19BqlN-eKoRZhrv01-V-11" value="" style="shape=partialRectangle;html=1;whiteSpace=wrap;connectable=0;overflow=hidden;fillColor=none;top=0;left=0;bottom=0;right=0;strokeColor=#028090;fontColor=#E4FDE1;" vertex="1" parent="k19BqlN-eKoRZhrv01-V-10">
          <mxGeometry width="60" height="40" as="geometry" />
        </mxCell>
      </root>
    </mxGraphModel>
  </diagram>
</mxfile>
